<svg preserveAspectRatio="none" width="100%" height="100%" overflow="visible" style="display: block;" viewBox="0 0 48 48" fill="none" xmlns="http://www.w3.org/2000/svg">
<g id="mark">
<path id="F4" d="M9.49422 41.8703V41.8642C9.33655 40.9184 9.25308 39.942 9.25308 38.9504C9.25308 30.7765 14.8643 23.8932 22.4913 21.849C19.5697 22.6087 16.6914 23.4966 14.0141 24.9184C10.2238 26.926 7.00549 30.1022 6.49847 34.4836C6.15222 37.4645 6.9313 40.5034 8.22667 43.1854C9.33655 45.4828 10.7772 47.0664 11.7604 48C10.4217 46.2914 9.59316 44.177 9.50041 41.8734L9.49422 41.8703Z" fill="url(#paint0_linear_291_5512)"/>
<g id="F3">
<path id="Vector" d="M9.25319 38.9504C9.25319 39.942 9.33666 40.9153 9.49433 41.8642V41.8703C9.48815 41.7239 9.48506 41.5744 9.48506 41.4279C9.48506 41.3913 9.48506 41.3577 9.48506 41.3211C9.3985 39.6949 9.54998 38.3859 9.59327 38.0503C9.7262 36.958 10.0199 34.746 11.2844 32.1556C12.8178 29.0191 14.9046 27.1304 15.7888 26.392C17.8818 24.6468 19.8635 23.8352 20.9518 23.3989C22.8438 22.6422 23.898 22.5385 26.7516 21.9008C29.3485 21.3181 31.5374 20.8299 34.1034 19.9603C39.625 18.0869 43.4925 15.6155 44.4602 14.9168C44.5746 14.8345 45.3939 14.2395 46.5347 13.4401C47.1159 13.0343 47.5889 12.7078 47.8888 12.5004C47.9259 12.4638 47.963 12.4241 48.0001 12.3875C47.4312 12.7231 46.5439 13.2357 45.431 13.8276C43.2174 15.0084 37.4516 17.9252 28.5942 20.3081C28.5818 20.3112 28.5725 20.3142 28.5602 20.3173C28.1057 20.4393 27.6512 20.5583 27.1937 20.6743C27.1473 20.6865 27.104 20.6956 27.0577 20.7078C26.6279 20.8177 26.1982 20.9245 25.7685 21.0282C25.2954 21.1441 24.8224 21.2601 24.3463 21.3791C24.3061 21.3882 24.269 21.3974 24.2288 21.4096C23.7898 21.5194 23.3508 21.6293 22.9118 21.7391C22.7696 21.7757 22.6274 21.8123 22.4852 21.849C14.8582 23.8932 9.24701 30.7765 9.24701 38.9504H9.25319Z" fill="url(#paint1_linear_291_5512)"/>
</g>
<g id="F2">
<path id="Vector_2" d="M20.2096 27.7589C22.2871 26.627 24.0308 26.0412 25.0201 25.7117C25.8394 25.4401 26.5411 25.2448 27.0698 25.1075C30.0965 24.177 33.9733 22.6697 38.1253 20.177C42.4103 17.6018 45.6255 14.7917 47.8886 12.4973C47.5887 12.7017 47.1157 13.0282 46.5344 13.4371C45.3937 14.2364 44.5713 14.8314 44.46 14.9138C43.4923 15.6094 39.6247 18.0839 34.1032 19.9573C31.5341 20.8268 29.3483 21.3181 26.7514 21.8978C23.8978 22.5355 22.8436 22.6392 20.9516 23.3959C19.8633 23.8322 17.8847 24.6438 15.7886 26.389C14.9044 27.1274 12.8176 29.016 11.2842 32.1525C10.0166 34.7399 9.726 36.955 9.59306 38.0473C9.55287 38.3829 9.40138 39.6949 9.48485 41.3181C9.50031 39.8779 9.80329 38.7643 9.9826 38.1998C10.5978 36.2837 11.7881 34.5477 13.17 33.315C13.1824 33.2998 14.2737 32.1708 14.5612 31.881C15.6309 30.8009 17.6436 29.1533 20.2065 27.7589H20.2096Z" fill="url(#paint2_linear_291_5512)"/>
</g>
<path id="F1" d="M43.1865 17.4645C44.8281 15.9969 46.0091 14.7124 46.6429 14.0015C47.2055 13.3669 47.6662 12.8085 48.0001 12.3875C46.8747 13.5347 45.4681 14.8589 43.7646 16.2349C41.5572 18.0198 39.5631 19.3135 38.1256 20.18C33.9735 22.6727 30.0967 24.18 27.07 25.1106C26.5414 25.2479 25.8365 25.4432 25.0203 25.7147C24.031 26.0412 22.2873 26.63 20.2098 27.762C17.6469 29.1564 15.6373 30.8039 14.5646 31.884C14.277 32.1739 13.1857 33.3028 13.1733 33.315C13.5752 32.9153 14.0513 32.5614 14.614 32.2624C15.0808 31.8779 15.7332 31.3745 16.5617 30.8467C17.3223 30.3585 18.2806 29.8184 19.9779 29.0862C21.6134 28.3814 22.6923 28.0335 24.402 27.4416C27.3235 26.4287 28.7828 25.9222 30.511 25.2174C32.0197 24.6011 33.7788 23.8749 35.9738 22.6422C37.5258 21.7696 38.6944 20.9794 39.2973 20.5583C39.8352 20.183 41.3655 19.0969 43.1896 17.4676L43.1865 17.4645Z" fill="url(#paint3_linear_291_5512)"/>
<g id="F front">
<path id="Vector_3" d="M21.2795 30.6239C23.5982 30.3066 25.9354 30.0808 28.2355 29.6384C28.6993 29.55 29.1661 29.4554 29.6268 29.3577C30.0905 29.2601 30.5511 29.1594 31.0118 29.0526C31.4724 28.9458 31.9331 28.8329 32.3906 28.717C34.6846 28.1373 36.9476 27.4355 39.155 26.5812C39.5508 26.4287 39.9434 26.27 40.3329 26.1083C40.5926 26.0015 40.8523 25.8917 41.112 25.7788C41.4985 25.611 41.8849 25.4401 42.2652 25.2632C42.058 25.5133 41.7674 25.8581 41.4057 26.2609C40.8492 26.8802 39.39 28.4943 37.4485 29.9954C35.204 31.7315 33.1635 32.6651 31.8187 33.2693C29.0023 34.5355 26.6248 35.1182 24.8224 35.5576C22.5223 36.119 20.4787 36.5095 20.4787 36.5095C19.4029 36.717 19.1092 36.7506 18.3085 36.9336C16.3484 37.3821 15.3684 37.6079 14.444 38.1693C12.7281 39.2098 11.9552 40.7475 11.7883 41.0953C11.0958 42.5385 11.1205 43.8261 11.1391 44.7384C11.1669 46.1419 11.4853 47.2708 11.7512 47.9939C10.9814 47.0114 10.3785 45.8947 9.98899 44.6834C9.82823 44.1861 9.48506 42.9931 9.47888 41.4218C9.4696 38.5812 10.5702 36.5431 10.799 36.1342C10.799 36.1342 11.9954 33.9924 13.906 32.6895C14.3203 32.4088 14.7686 32.1648 14.7686 32.1648C14.8953 32.0946 15.053 32.0122 15.2601 31.9176C15.5508 31.7864 15.8383 31.6796 16.1289 31.6003C17.8231 31.1396 19.5451 30.8558 21.2764 30.6178L21.2795 30.6239Z" fill="url(#paint4_linear_291_5512)"/>
</g>
<g id="Plumes 8A">
<path id="Plume 2" d="M5.10116 7.06941C4.91258 5.94661 4.72708 4.8177 4.54159 3.68268C4.34063 2.45004 4.14586 1.22044 3.95728 0C4.24479 0.369184 4.6467 0.903127 5.10116 1.56217C5.53089 2.18764 7.4755 5.16552 9.24698 9.91914C10.7433 13.9375 11.6832 18.2273 11.9645 22.688C9.81893 20.1861 7.1076 16.2502 5.77204 10.9108C5.43196 9.55606 5.22174 8.26545 5.09807 7.06941H5.10116Z" fill="url(#paint5_linear_291_5512)"/>
<path id="Plume 3" d="M8.33801 14.4866C8.06595 14.0686 6.45524 11.5881 4.62811 9.92828C4.40242 9.72385 4.18292 9.51028 3.96651 9.2906C2.24449 7.53621 0.896561 5.42485 0.0463743 3.0816C0.0123668 3.40501 0 3.73148 0 4.06405C0 4.85124 0.0865642 5.61707 0.247327 6.35543C0.278243 6.49578 0.312251 6.63308 0.34935 6.77344C0.352441 6.78869 0.358624 6.80395 0.361715 6.82225C2.18575 13.376 6.35321 18.9687 11.9243 22.6697C11.9366 22.6788 11.949 22.685 11.9614 22.6941C11.5842 21.3181 10.5361 17.8612 8.33492 14.4927L8.33801 14.4866Z" fill="url(#paint6_linear_291_5512)"/>
<path id="Plume 1" d="M16.5616 11.2952C17.653 9.82455 18.4506 8.27459 18.7288 6.37985C18.7659 6.61479 18.7938 6.85277 18.8185 7.09076C18.8185 7.09686 18.8185 7.10296 18.8185 7.10601C18.8772 7.69183 18.9081 8.28069 18.9081 8.88176C18.9081 9.01906 18.9081 9.15636 18.902 9.29061C18.8865 9.98931 18.8278 10.6758 18.7288 11.3532C18.7288 11.3532 18.6546 11.8596 18.5526 12.36C17.8694 15.6644 15.8969 18.5568 15.8969 18.5568C14.5799 20.4882 13.1021 21.8246 11.9583 22.6911C11.9644 22.1388 11.9984 21.434 12.1097 20.6194C12.2179 19.8322 12.4467 18.6056 12.9723 17.1869C13.0619 16.9458 14.0327 14.3829 15.7795 12.2807C15.934 12.0976 16.1999 11.7773 16.5585 11.2952H16.5616Z" fill="url(#paint7_linear_291_5512)"/>
</g>
<g id="Plumes 9A">
<path id="Vector_4" d="M16.5926 11.2921C17.684 9.82151 18.4816 8.27155 18.7598 6.37681C18.7969 6.61174 18.8248 6.84973 18.8495 7.08772C18.8495 7.09382 18.8495 7.09992 18.8495 7.10297C18.9082 7.68878 18.9392 8.27765 18.9392 8.87872C18.9392 9.01602 18.9391 9.15331 18.933 9.28756C18.9175 9.98627 18.8588 10.6728 18.7598 11.3501C18.7598 11.3501 18.6856 11.8566 18.5836 12.357C17.9004 15.6613 15.9279 18.5538 15.9279 18.5538C14.6109 20.4851 13.1331 21.8215 11.9893 22.688C11.9954 22.1358 12.0294 21.431 12.1407 20.6163C12.249 19.8291 12.4777 18.6026 13.0033 17.1838C13.093 16.9428 14.0637 14.3799 15.8105 12.2776C15.965 12.0946 16.2309 11.7742 16.5895 11.2921H16.5926Z" fill="url(#paint8_linear_291_5512)"/>
<g id="Group">
<path id="2 PLUME" d="M5.12906 7.06941C4.94047 5.94661 4.75497 4.8177 4.56948 3.68268C4.36853 2.45004 4.17376 1.22044 3.98517 0C4.27269 0.369184 4.67459 0.903127 5.12906 1.56217C5.55879 2.18764 7.5034 5.16552 9.27488 9.91914C10.7712 13.9375 11.711 18.2273 11.9924 22.688C9.84682 20.1861 7.1355 16.2502 5.79993 10.9108C5.45986 9.55606 5.24963 8.26545 5.12597 7.06941H5.12906Z" fill="url(#paint9_linear_291_5512)"/>
<path id="Vector_5" d="M8.36536 14.4866C8.0933 14.0686 6.48258 11.5881 4.65545 9.92828C4.42977 9.72385 4.21026 9.51028 3.99385 9.2906C2.27184 7.53621 0.923905 5.42485 0.073718 3.0816C0.0397106 3.40501 0.0273438 3.73148 0.0273438 4.06405C0.0273438 4.85124 0.113908 5.61707 0.274671 6.35543C0.305586 6.49578 0.339595 6.63308 0.376694 6.77344C0.379785 6.78869 0.385967 6.80395 0.389059 6.82225C2.2131 13.376 6.38056 18.9687 11.9516 22.6697C11.964 22.6788 11.9763 22.685 11.9887 22.6941C11.6115 21.3181 10.5635 17.8612 8.36227 14.4927L8.36536 14.4866Z" fill="url(#paint10_linear_291_5512)"/>
</g>
</g>
</g>
<defs>
<linearGradient id="paint0_linear_291_5512" x1="7.31465" y1="47.1762" x2="16.3184" y2="22.1601" gradientUnits="userSpaceOnUse">
<stop stop-color="#006C46"/>
<stop offset="0.31" stop-color="#016F46"/>
<stop offset="0.62" stop-color="#057B46"/>
<stop offset="0.93" stop-color="#0B8F47"/>
<stop offset="1" stop-color="#0D9548"/>
</linearGradient>
<linearGradient id="paint1_linear_291_5512" x1="9.25319" y1="27.1304" x2="48.0001" y2="27.1304" gradientUnits="userSpaceOnUse">
<stop stop-color="#0D9548"/>
<stop offset="0.23" stop-color="#109747"/>
<stop offset="0.45" stop-color="#1C9E44"/>
<stop offset="0.67" stop-color="#30A940"/>
<stop offset="0.9" stop-color="#4CB93A"/>
<stop offset="1" stop-color="#5CC237"/>
</linearGradient>
<linearGradient id="paint2_linear_291_5512" x1="9.46012" y1="26.9107" x2="47.8917" y2="26.9107" gradientUnits="userSpaceOnUse">
<stop stop-color="#0D9548"/>
<stop offset="0.23" stop-color="#109747"/>
<stop offset="0.45" stop-color="#1C9E44"/>
<stop offset="0.67" stop-color="#30A940"/>
<stop offset="0.9" stop-color="#4CB93A"/>
<stop offset="1" stop-color="#5CC237"/>
</linearGradient>
<linearGradient id="paint3_linear_291_5512" x1="13.1764" y1="22.8528" x2="48.0001" y2="22.8528" gradientUnits="userSpaceOnUse">
<stop stop-color="#F27231"/>
<stop offset="1" stop-color="#ED2C7D"/>
</linearGradient>
<linearGradient id="paint4_linear_291_5512" x1="9.48506" y1="36.6316" x2="42.2714" y2="36.6316" gradientUnits="userSpaceOnUse">
<stop stop-color="#5CC237"/>
<stop offset="0.1" stop-color="#4CB93A"/>
<stop offset="0.33" stop-color="#30A940"/>
<stop offset="0.55" stop-color="#1C9E44"/>
<stop offset="0.77" stop-color="#109747"/>
<stop offset="1" stop-color="#0D9548"/>
</linearGradient>
<linearGradient id="paint5_linear_291_5512" x1="3.95728" y1="11.344" x2="11.9645" y2="11.344" gradientUnits="userSpaceOnUse">
<stop stop-color="#F58430"/>
<stop offset="0.97" stop-color="#ED2C7D"/>
</linearGradient>
<linearGradient id="paint6_linear_291_5512" x1="0" y1="12.8848" x2="11.9644" y2="12.8848" gradientUnits="userSpaceOnUse">
<stop stop-color="#F27231"/>
<stop offset="1" stop-color="#FAAD42"/>
</linearGradient>
<linearGradient id="paint7_linear_291_5512" x1="11.9644" y1="14.5324" x2="18.9112" y2="14.5324" gradientUnits="userSpaceOnUse">
<stop stop-color="#06B1C8"/>
<stop offset="1" stop-color="#5555A4"/>
</linearGradient>
<linearGradient id="paint8_linear_291_5512" x1="11.9923" y1="14.5294" x2="18.9422" y2="14.5294" gradientUnits="userSpaceOnUse">
<stop stop-color="#0EB2CA"/>
<stop offset="1" stop-color="#5627FF"/>
</linearGradient>
<linearGradient id="paint9_linear_291_5512" x1="3.98517" y1="11.344" x2="11.9924" y2="11.344" gradientUnits="userSpaceOnUse">
<stop stop-color="#FF6E00"/>
<stop offset="1" stop-color="#F40076"/>
</linearGradient>
<linearGradient id="paint10_linear_291_5512" x1="0.0304353" y1="12.8848" x2="11.9918" y2="12.8848" gradientUnits="userSpaceOnUse">
<stop stop-color="#FF8700"/>
<stop offset="0.13" stop-color="#FE8406"/>
<stop offset="0.32" stop-color="#FC7E1A"/>
<stop offset="0.55" stop-color="#FA7339"/>
<stop offset="0.81" stop-color="#F76464"/>
<stop offset="1" stop-color="#F4588B"/>
</linearGradient>
</defs>
</svg>
